<svg width="24" height="24" viewBox="0 0 24 24" fill="none" xmlns="http://www.w3.org/2000/svg">
	<path
		fill-rule="evenodd"
		clip-rule="evenodd"
		d="M18.5455 4.8H5.45455C5.23755 4.8 5.02944 4.89482 4.876 5.0636C4.72256 5.23239 4.63636 5.46131 4.63636 5.7V18.3C4.63636 18.5387 4.72256 18.7676 4.876 18.9364C5.02944 19.1052 5.23755 19.2 5.45455 19.2H18.5455C18.7625 19.2 18.9706 19.1052 19.124 18.9364C19.2774 18.7676 19.3636 18.5387 19.3636 18.3V5.7C19.3636 5.46131 19.2774 5.23239 19.124 5.0636C18.9706 4.89482 18.7625 4.8 18.5455 4.8ZM5.45455 3C4.80356 3 4.17924 3.28446 3.71892 3.79081C3.2586 4.29716 3 4.98392 3 5.7V18.3C3 19.0161 3.2586 19.7028 3.71892 20.2092C4.17924 20.7155 4.80356 21 5.45455 21H18.5455C19.1964 21 19.8208 20.7155 20.2811 20.2092C20.7414 19.7028 21 19.0161 21 18.3V5.7C21 4.98392 20.7414 4.29716 20.2811 3.79081C19.8208 3.28446 19.1964 3 18.5455 3H5.45455ZM7.09091 7.5H8.72727V9.3H7.09091V7.5ZM11.1818 7.5C10.9648 7.5 10.7567 7.59482 10.6033 7.7636C10.4498 7.93239 10.3636 8.1613 10.3636 8.4C10.3636 8.63869 10.4498 8.86761 10.6033 9.0364C10.7567 9.20518 10.9648 9.3 11.1818 9.3H16.0909C16.3079 9.3 16.516 9.20518 16.6695 9.0364C16.8229 8.86761 16.9091 8.63869 16.9091 8.4C16.9091 8.1613 16.8229 7.93239 16.6695 7.7636C16.516 7.59482 16.3079 7.5 16.0909 7.5H11.1818ZM8.72727 11.1H7.09091V12.9H8.72727V11.1ZM10.3636 12C10.3636 11.7613 10.4498 11.5324 10.6033 11.3636C10.7567 11.1948 10.9648 11.1 11.1818 11.1H16.0909C16.3079 11.1 16.516 11.1948 16.6695 11.3636C16.8229 11.5324 16.9091 11.7613 16.9091 12C16.9091 12.2387 16.8229 12.4676 16.6695 12.6364C16.516 12.8052 16.3079 12.9 16.0909 12.9H11.1818C10.9648 12.9 10.7567 12.8052 10.6033 12.6364C10.4498 12.4676 10.3636 12.2387 10.3636 12ZM8.72727 14.7H7.09091V16.5H8.72727V14.7ZM10.3636 15.6C10.3636 15.3613 10.4498 15.1324 10.6033 14.9636C10.7567 14.7948 10.9648 14.7 11.1818 14.7H16.0909C16.3079 14.7 16.516 14.7948 16.6695 14.9636C16.8229 15.1324 16.9091 15.3613 16.9091 15.6C16.9091 15.8387 16.8229 16.0676 16.6695 16.2364C16.516 16.4052 16.3079 16.5 16.0909 16.5H11.1818C10.9648 16.5 10.7567 16.4052 10.6033 16.2364C10.4498 16.0676 10.3636 15.8387 10.3636 15.6Z"
		fill="currentColor"
	/>
</svg>
