<svg width="24" height="24" viewBox="0 0 24 24" fill="none" xmlns="http://www.w3.org/2000/svg">
	<path
		d="M21 11.999C21.003 13.7859 20.4715 15.533 19.474 17.0155C18.6513 18.2426 17.5391 19.2481 16.2355 19.9431C14.9319 20.638 13.4772 21.001 12 21C10.5228 21.001 9.06808 20.638 7.7645 19.9431C6.46093 19.2481 5.34864 18.2426 4.526 17.0155C3.74273 15.8478 3.2439 14.5128 3.06951 13.1175C2.89511 11.7222 3.05 10.3055 3.52175 8.98089C3.9935 7.65627 4.76899 6.46061 5.78607 5.48976C6.80314 4.51891 8.03349 3.79987 9.3785 3.3903C10.7235 2.98072 12.1458 2.892 13.5312 3.13123C14.9167 3.37047 16.2269 3.93102 17.3567 4.76794C18.4865 5.60486 19.4046 6.69487 20.0373 7.95059C20.6699 9.20631 20.9997 10.5928 21 11.999Z"
		stroke="currentColor"
		stroke-width="2"
	/>
	<path
		d="M12.7293 9.15151C12.7293 9.3444 12.6525 9.52938 12.5157 9.66577C12.3789 9.80216 12.1934 9.87879 12 9.87879V12.303C12.8382 12.303 13.642 11.971 14.2347 11.38C14.8274 10.7889 15.1603 9.98735 15.1603 9.15151H12.7293ZM12 9.87879C11.8066 9.87879 11.6211 9.80216 11.4843 9.66577C11.3475 9.52938 11.2707 9.3444 11.2707 9.15151H8.83967C8.83967 9.98735 9.17264 10.7889 9.76531 11.38C10.358 11.971 11.1618 12.303 12 12.303V9.87879ZM11.2707 9.15151C11.2707 8.95863 11.3475 8.77365 11.4843 8.63726C11.6211 8.50087 11.8066 8.42424 12 8.42424V6C11.1618 6 10.358 6.33203 9.76531 6.92306C9.17264 7.51408 8.83967 8.31568 8.83967 9.15151H11.2707ZM12 8.42424C12.1934 8.42424 12.3789 8.50087 12.5157 8.63726C12.6525 8.77365 12.7293 8.95863 12.7293 9.15151H15.1603C15.1603 8.31568 14.8274 7.51408 14.2347 6.92306C13.642 6.33203 12.8382 6 12 6V8.42424ZM5.35456 17.7392L4.18962 17.3939L4 18.0271L4.43175 18.5285L5.35456 17.7392ZM18.6454 17.7392L19.5683 18.5285L20 18.0271L19.8104 17.3939L18.6454 17.7392ZM9.08278 16.1818H14.9172V13.7576H9.08278V16.1818ZM9.08278 13.7576C7.98331 13.7577 6.91325 14.1117 6.03166 14.7668C5.15008 15.422 4.50405 16.3433 4.18962 17.3939L6.51951 18.0853C6.68458 17.5353 7.02313 17.053 7.4849 16.7101C7.94667 16.3672 8.50703 16.1819 9.08278 16.1818V13.7576ZM12 19.5758C10.9125 19.5771 9.83765 19.3431 8.84966 18.8899C7.86166 18.4367 6.98405 17.7751 6.27738 16.9508L4.43175 18.5285C5.36663 19.6183 6.52735 20.493 7.83392 21.0923C9.14049 21.6916 10.5618 22.0013 12 22V19.5758ZM14.9172 16.1818C16.1269 16.1818 17.1518 16.9838 17.4805 18.0853L19.8104 17.3939C19.4959 16.3433 18.8499 15.422 17.9683 14.7668C17.0868 14.1117 16.0167 13.7577 14.9172 13.7576V16.1818ZM17.7226 16.9508C17.016 17.7751 16.1383 18.4367 15.1503 18.8899C14.1623 19.3431 13.0875 19.5771 12 19.5758V22C13.4382 22.0013 14.8595 21.6916 16.1661 21.0923C17.4727 20.493 18.6334 19.6183 19.5683 18.5285L17.7226 16.9508Z"
		fill="currentColor"
	/>
</svg>
